# Blender v2.83.20 OBJ File: ''
# www.blender.org
mtllib grassterrain2.mtl
o Plane
v -6.387240 0.000000 6.387240
v 6.387240 0.000000 6.387240
v -6.387240 0.000000 -6.387240
v 6.387240 0.000000 -6.387240
v -3.832344 0.000000 6.387240
v -1.277448 0.000000 6.387240
v 1.277448 0.000000 6.387240
v 3.832344 0.000000 6.387240
v 3.832344 0.000000 -6.387240
v 1.277448 0.000000 -6.387240
v -1.277448 0.000000 -6.387240
v -3.832344 0.000000 -6.387240
v -6.387240 0.000000 -3.889697
v -6.387240 0.000000 -1.334801
v -6.387240 0.000000 1.220095
v -6.387240 0.000000 3.774992
v 6.387240 0.000000 3.774992
v 6.387240 0.000000 1.220095
v 6.387240 0.000000 -1.334801
v 6.387240 0.000000 -3.889697
v -3.832344 0.000000 3.774992
v -3.832344 0.000000 1.220095
v -3.832344 0.000000 -1.334801
v -3.832344 0.000000 -3.889697
v -1.277448 0.000000 3.774992
v -1.277448 0.000000 1.220095
v -1.277448 0.000000 -1.334801
v -1.277448 0.000000 -3.889697
v 1.277448 0.000000 3.774992
v 1.277448 0.000000 1.220095
v 1.277448 0.000000 -1.334801
v 1.277448 0.000000 -3.889697
v 3.832344 0.000000 3.774992
v 3.832344 0.000000 1.220095
v 3.832344 0.000000 -1.334801
v 3.832344 0.000000 -3.889697
vt 0.800000 0.804490
vt 1.000000 0.804490
vt 1.000000 1.000000
vt 0.800000 1.000000
vt 0.000000 0.804490
vt 0.200000 0.804490
vt 0.200000 1.000000
vt 0.000000 1.000000
vt 0.400000 0.804490
vt 0.400000 1.000000
vt 0.600000 0.804490
vt 0.600000 1.000000
vt 0.600000 0.000000
vt 0.800000 0.000000
vt 0.800000 0.204490
vt 0.600000 0.204490
vt 0.800000 0.404490
vt 0.600000 0.404490
vt 0.800000 0.604490
vt 0.600000 0.604490
vt 0.400000 0.000000
vt 0.400000 0.204490
vt 0.400000 0.404490
vt 0.400000 0.604490
vt 0.200000 0.000000
vt 0.200000 0.204490
vt 0.200000 0.404490
vt 0.200000 0.604490
vt 0.000000 0.000000
vt 0.000000 0.204490
vt 0.000000 0.404490
vt 0.000000 0.604490
vt 1.000000 0.000000
vt 1.000000 0.204490
vt 1.000000 0.404490
vt 1.000000 0.604490
vn 0.0000 1.0000 0.0000
usemtl None
s off
f 36/1/1 20/2/1 4/3/1 9/4/1
f 13/5/1 24/6/1 12/7/1 3/8/1
f 24/6/1 28/9/1 11/10/1 12/7/1
f 28/9/1 32/11/1 10/12/1 11/10/1
f 32/11/1 36/1/1 9/4/1 10/12/1
f 7/13/1 8/14/1 33/15/1 29/16/1
f 29/16/1 33/15/1 34/17/1 30/18/1
f 30/18/1 34/17/1 35/19/1 31/20/1
f 31/20/1 35/19/1 36/1/1 32/11/1
f 6/21/1 7/13/1 29/16/1 25/22/1
f 25/22/1 29/16/1 30/18/1 26/23/1
f 26/23/1 30/18/1 31/20/1 27/24/1
f 27/24/1 31/20/1 32/11/1 28/9/1
f 5/25/1 6/21/1 25/22/1 21/26/1
f 21/26/1 25/22/1 26/23/1 22/27/1
f 22/27/1 26/23/1 27/24/1 23/28/1
f 23/28/1 27/24/1 28/9/1 24/6/1
f 1/29/1 5/25/1 21/26/1 16/30/1
f 16/30/1 21/26/1 22/27/1 15/31/1
f 15/31/1 22/27/1 23/28/1 14/32/1
f 14/32/1 23/28/1 24/6/1 13/5/1
f 8/14/1 2/33/1 17/34/1 33/15/1
f 33/15/1 17/34/1 18/35/1 34/17/1
f 34/17/1 18/35/1 19/36/1 35/19/1
f 35/19/1 19/36/1 20/2/1 36/1/1
